<svg width="20" height="21" viewBox="0 0 20 21" fill="none" xmlns="http://www.w3.org/2000/svg">
<path d="M3.52941 5.55017C3.52941 4.66611 3.8083 3.81827 4.30472 3.19314C4.80114 2.56802 5.47443 2.21683 6.17647 2.21683C6.87851 2.21683 7.5518 2.56802 8.04822 3.19314C8.54464 3.81827 8.82353 4.66611 8.82353 5.55017C8.82353 6.43422 8.54464 7.28207 8.04822 7.90719C7.5518 8.53231 6.87851 8.8835 6.17647 8.8835C5.47443 8.8835 4.80114 8.53231 4.30472 7.90719C3.8083 7.28207 3.52941 6.43422 3.52941 5.55017ZM6.17647 0.735352C5.16241 0.735352 4.18988 1.24263 3.47283 2.14558C2.75578 3.04853 2.35294 4.2732 2.35294 5.55017C2.35294 6.82713 2.75578 8.0518 3.47283 8.95475C4.18988 9.85771 5.16241 10.365 6.17647 10.365C7.19053 10.365 8.16306 9.85771 8.88011 8.95475C9.59717 8.0518 10 6.82713 10 5.55017C10 4.2732 9.59717 3.04853 8.88011 2.14558C8.16306 1.24263 7.19053 0.735352 6.17647 0.735352ZM12.8671 17.9872C13.5 18.3131 14.2965 18.5131 15.2941 18.5131C17.5071 18.5131 18.7306 17.5235 19.3753 16.3887C19.7116 15.7932 19.9225 15.0999 19.9882 14.3739C19.9941 14.3064 19.998 14.2387 20 14.1709V14.0687C20 13.7769 19.9544 13.4879 19.8657 13.2183C19.777 12.9487 19.647 12.7037 19.4831 12.4973C19.3193 12.291 19.1247 12.1273 18.9106 12.0156C18.6965 11.9039 18.467 11.8465 18.2353 11.8465H12.7882C13.0706 12.2761 13.2824 12.7783 13.4059 13.3279H18.2353C18.3913 13.3279 18.5409 13.406 18.6512 13.5449C18.7616 13.6838 18.8235 13.8722 18.8235 14.0687V14.1487L18.8176 14.2228C18.7726 14.6925 18.6351 15.1406 18.4176 15.5265C18.0329 16.2065 17.1976 17.0316 15.2941 17.0316C14.4329 17.0316 13.7906 16.8628 13.3094 16.6154C13.2129 17.0302 13.0729 17.4983 12.8671 17.9872ZM0 14.8094C0 14.0236 0.247898 13.27 0.68916 12.7143C1.13042 12.1586 1.7289 11.8465 2.35294 11.8465H10C10.624 11.8465 11.2225 12.1586 11.6638 12.7143C12.105 13.27 12.3529 14.0236 12.3529 14.8094V14.9339C12.3529 14.9487 12.3529 14.9679 12.3506 14.9931C12.3363 15.2865 12.3028 15.5778 12.2506 15.8642C12.1506 16.4094 11.9518 17.1383 11.5506 17.8702C10.7259 19.3724 9.13294 20.7354 6.17647 20.7354C3.22 20.7354 1.62706 19.3724 0.802353 17.8702C0.368028 17.0735 0.097215 16.1538 0.0141176 15.1931C0.00708757 15.1069 0.00237903 15.0205 0 14.9339V14.8094ZM1.17647 14.8983V14.925L1.18471 15.0479C1.24845 15.7581 1.44963 16.4378 1.77059 17.0272C2.34353 18.0702 3.54471 19.2539 6.17647 19.2539C8.80824 19.2539 10.0094 18.0702 10.5824 17.0272C10.9034 16.4378 11.1046 15.7582 11.1682 15.0479C11.1721 15.0071 11.1744 14.9661 11.1753 14.925L11.1765 14.8998V14.8094C11.1765 14.4165 11.0525 14.0397 10.8319 13.7619C10.6113 13.484 10.312 13.3279 10 13.3279H2.35294C2.04092 13.3279 1.74168 13.484 1.52105 13.7619C1.30042 14.0397 1.17647 14.4165 1.17647 14.8094V14.8983ZM13.5294 6.66128C13.5294 6.07191 13.7153 5.50668 14.0463 5.08993C14.3772 4.67318 14.8261 4.43906 15.2941 4.43906C15.7621 4.43906 16.211 4.67318 16.542 5.08993C16.8729 5.50668 17.0588 6.07191 17.0588 6.66128C17.0588 7.25065 16.8729 7.81588 16.542 8.23263C16.211 8.64937 15.7621 8.8835 15.2941 8.8835C14.8261 8.8835 14.3772 8.64937 14.0463 8.23263C13.7153 7.81588 13.5294 7.25065 13.5294 6.66128ZM15.2941 2.95757C14.5141 2.95757 13.766 3.34778 13.2144 4.04236C12.6628 4.73694 12.3529 5.67899 12.3529 6.66128C12.3529 7.64356 12.6628 8.58561 13.2144 9.28019C13.766 9.97477 14.5141 10.365 15.2941 10.365C16.0742 10.365 16.8223 9.97477 17.3738 9.28019C17.9254 8.58561 18.2353 7.64356 18.2353 6.66128C18.2353 5.67899 17.9254 4.73694 17.3738 4.04236C16.8223 3.34778 16.0742 2.95757 15.2941 2.95757Z" fill="white"/>
</svg>
