<svg width="620" height="534" viewBox="0 0 620 534" fill="none" xmlns="http://www.w3.org/2000/svg">
<path d="M564.994 200.207C554.925 171.2 538.21 143.603 518.89 120.406C502.981 101.289 484.604 83.4108 461.181 71.0434C404.141 40.9258 326.616 35.5537 268.373 65.8529C211.916 95.2336 203.695 136.757 149.594 153.974C95.4924 171.19 37.8696 196.512 28.52 293.753C19.1704 390.995 77.8596 474.042 236.617 505.442C395.374 536.841 391.84 414.288 456.531 396.057C553.04 368.855 592.72 279.944 564.994 200.207Z" fill="#4A90E2"/>
<path opacity="0.7" d="M564.994 200.207C554.925 171.2 538.21 143.603 518.89 120.406C502.981 101.289 484.604 83.4108 461.181 71.0434C404.141 40.9258 326.616 35.5537 268.373 65.8529C211.916 95.2336 203.695 136.757 149.594 153.974C95.4924 171.19 37.8696 196.512 28.52 293.753C19.1704 390.995 77.8596 474.042 236.617 505.442C395.374 536.841 391.84 414.288 456.531 396.057C553.04 368.855 592.72 279.944 564.994 200.207Z" fill="white"/>
<path d="M508.574 339.111C511.277 340.179 517.874 339.998 517.886 339.998C517.898 339.998 516.46 336.27 516.336 336.046C514.885 333.44 510.31 329.126 506.577 329.563C505.96 329.65 505.372 329.848 504.85 330.144C504.328 330.44 503.884 330.827 503.547 331.28C503.21 331.734 502.988 332.243 502.895 332.775C502.801 333.307 502.839 333.851 503.006 334.369C503.626 336.591 506.267 338.246 508.574 339.111Z" fill="#263238"/>
<path d="M510.88 355.644C513.682 355.996 519.56 354.523 520.044 354.405C521.01 357.319 522.203 360.173 523.615 362.949C524.421 364.562 525.301 366.153 526.206 367.766C525.661 367.093 525.177 366.484 525.103 366.409C522.896 364.22 517.154 361.069 513.695 362.372C513.127 362.597 512.62 362.921 512.207 363.325C511.794 363.729 511.485 364.203 511.299 364.717C511.113 365.231 511.054 365.773 511.128 366.307C511.201 366.842 511.404 367.357 511.723 367.819C512.963 369.827 516.063 370.82 518.543 371.13C521.023 371.44 526.12 370.276 527.459 369.955C527.806 370.564 528.153 371.183 528.513 371.792C530.212 374.718 531.935 377.634 533.473 380.528C534.031 381.596 534.527 382.579 535.048 383.604C534.564 383.006 534.155 382.536 534.08 382.429C531.886 380.24 526.144 377.089 522.685 378.392C522.115 378.615 521.607 378.939 521.193 379.343C520.779 379.747 520.469 380.221 520.283 380.736C520.097 381.25 520.039 381.792 520.113 382.327C520.187 382.862 520.392 383.377 520.713 383.839C521.953 385.847 525.053 386.84 527.533 387.15C530.013 387.46 534.614 386.402 536.213 386.029C536.697 387.097 537.193 388.165 537.602 389.233C537.875 389.959 538.185 390.632 538.408 391.369C538.631 392.106 538.867 392.821 539.102 393.505C539.487 394.893 539.896 396.313 540.231 397.68C540.479 398.62 540.69 399.528 540.9 400.436C540.355 399.368 539.251 397.424 539.14 397.232C537.354 394.786 532.22 390.952 528.575 391.753C527.973 391.901 527.414 392.156 526.934 392.503C526.454 392.849 526.064 393.278 525.789 393.763C525.514 394.247 525.361 394.776 525.339 395.315C525.317 395.853 525.426 396.39 525.661 396.89C526.578 399.026 529.381 400.415 531.861 401.045C534.502 401.739 540.342 401.109 541.074 401.045C541.434 402.551 541.756 404.014 542.029 405.402C543.021 410.219 543.628 414.256 544 417.086C544.075 417.588 544.124 418.037 544.186 418.464H532.853L533.622 431.387H559.662L560.43 418.464H549.878C549.952 418.325 550.027 418.186 550.114 418.047C551.552 415.441 553.561 411.714 555.731 407.143C556.425 405.701 557.12 404.153 557.826 402.551C558.533 402.679 564.324 403.693 567.027 403.17C569.507 402.689 572.446 401.493 573.537 399.411C573.822 398.925 573.983 398.393 574.011 397.849C574.038 397.306 573.931 396.764 573.697 396.259C573.462 395.753 573.105 395.297 572.65 394.92C572.195 394.543 571.652 394.253 571.057 394.071C567.486 393.003 562.042 396.527 560.046 398.855C559.934 398.994 558.806 400.607 558.186 401.632C558.471 400.981 558.744 400.34 559.029 399.667C559.6 398.332 560.12 396.986 560.691 395.534C560.939 394.822 561.187 394.11 561.435 393.398C561.708 392.693 561.881 391.903 562.104 391.155C562.588 389.403 562.985 387.599 563.344 385.815C564.708 386.242 569.544 387.695 572.024 387.545C574.504 387.396 577.666 386.605 579.117 384.683C579.477 384.242 579.726 383.742 579.846 383.213C579.966 382.684 579.956 382.14 579.816 381.615C579.675 381.09 579.408 380.596 579.031 380.166C578.654 379.736 578.177 379.379 577.629 379.119C574.281 377.634 568.28 380.379 565.899 382.419C565.75 382.547 564.237 384.17 563.419 385.089C563.617 384.021 563.828 382.899 563.989 381.789C564.448 378.585 564.808 375.306 565.167 372.048C565.279 371.055 565.415 370.062 565.527 369.069C566.01 369.218 571.727 371.055 574.554 370.884C577.034 370.735 580.196 369.945 581.647 368.022C582.007 367.583 582.255 367.082 582.375 366.555C582.495 366.027 582.485 365.483 582.345 364.959C582.204 364.435 581.937 363.942 581.56 363.513C581.184 363.084 580.706 362.728 580.159 362.469C576.811 360.984 570.809 363.718 568.428 365.758C568.255 365.918 566.072 368.268 565.552 368.887C565.824 366.698 566.11 364.519 566.506 362.372C567.008 359.486 567.733 356.632 568.676 353.828C568.9 353.903 574.876 355.847 577.741 355.665C580.221 355.516 583.395 354.726 584.846 352.803C585.204 352.362 585.449 351.862 585.568 351.334C585.686 350.806 585.674 350.262 585.532 349.738C585.391 349.215 585.123 348.722 584.746 348.294C584.37 347.865 583.892 347.509 583.346 347.25C579.998 345.765 574.008 348.499 571.628 350.539C571.442 350.699 569.148 353.23 568.701 353.743C568.763 353.583 568.8 353.412 568.85 353.252C569.887 350.456 571.206 347.743 572.793 345.146C573.649 343.704 574.554 342.369 575.484 341.087C576.55 341.546 581.461 343.597 584.077 343.682C586.694 343.768 589.806 343.287 591.517 341.546C591.929 341.141 592.237 340.666 592.422 340.152C592.607 339.638 592.665 339.096 592.591 338.561C592.517 338.027 592.314 337.511 591.995 337.049C591.675 336.586 591.246 336.186 590.736 335.875C587.599 334.081 581.3 336.238 578.671 338.011C578.522 338.107 577.195 339.25 576.253 340.083C576.674 339.507 577.096 338.908 577.493 338.374C579.068 336.324 580.655 334.54 582.081 332.97C582.899 332.084 583.656 331.294 584.375 330.557C585.689 330.557 591.021 330.396 593.352 329.489C595.684 328.581 598.213 326.861 598.771 324.619C598.921 324.096 598.942 323.553 598.832 323.023C598.722 322.493 598.484 321.989 598.133 321.544C597.782 321.099 597.327 320.722 596.796 320.438C596.265 320.155 595.67 319.971 595.051 319.898C591.331 319.556 586.867 323.967 585.503 326.616C585.379 326.84 584.015 330.599 584.077 330.599H584.164C583.457 331.283 582.701 332.041 581.907 332.874C580.444 334.423 578.807 336.174 577.17 338.214C575.365 340.371 573.709 342.618 572.21 344.943C570.536 347.539 569.133 350.259 568.019 353.07C568.023 353.106 568.023 353.141 568.019 353.177C568.019 352.226 568.019 349.567 568.019 349.364C567.585 346.491 564.795 341.162 561.088 340.575C560.47 340.491 559.839 340.521 559.235 340.662C558.632 340.803 558.07 341.052 557.585 341.393C557.101 341.733 556.706 342.158 556.424 342.639C556.143 343.12 555.983 343.646 555.954 344.184C555.731 346.459 557.653 348.745 559.525 350.187C561.633 351.81 567.498 353.391 567.97 353.508C566.909 356.389 566.08 359.329 565.49 362.308C565.13 364.049 564.832 365.801 564.56 367.563C564.56 366.741 564.56 366.014 564.56 365.907C564.126 363.035 561.336 357.705 557.628 357.118C557.011 357.036 556.38 357.068 555.778 357.209C555.175 357.351 554.614 357.6 554.13 357.94C553.646 358.28 553.25 358.704 552.969 359.184C552.687 359.665 552.525 360.19 552.494 360.728C552.284 363.013 554.193 365.288 556.066 366.73C557.938 368.172 562.935 369.624 564.25 369.934C564.163 370.617 564.051 371.29 563.952 371.974C563.506 375.178 563.072 378.467 562.538 381.639C562.34 382.707 562.104 383.861 561.881 384.95C561.881 384.224 561.881 383.615 561.881 383.519C561.447 380.646 558.657 375.317 554.962 374.729C554.344 374.648 553.714 374.679 553.112 374.821C552.509 374.962 551.948 375.211 551.464 375.551C550.98 375.892 550.584 376.316 550.303 376.796C550.021 377.276 549.859 377.802 549.828 378.339C549.605 380.614 551.527 382.899 553.4 384.341C555.272 385.783 559.773 387.086 561.348 387.545C561.075 388.667 560.802 389.788 560.468 390.856C560.232 391.582 560.058 392.298 559.773 392.992C559.488 393.686 559.24 394.423 558.967 395.128C558.409 396.463 557.826 397.851 557.244 399.144C556.847 400.041 556.438 400.895 556.004 401.76C556.202 400.692 556.549 398.46 556.549 398.279C556.504 395.734 555.706 393.242 554.23 391.038C554.241 390.752 554.22 390.466 554.168 390.183C554.085 389.653 553.873 389.143 553.547 388.688C553.221 388.232 552.787 387.841 552.274 387.539C551.761 387.236 551.18 387.031 550.568 386.934C549.957 386.838 549.329 386.853 548.725 386.979C545.092 387.812 542.785 393.302 542.612 396.196C542.612 396.367 542.736 398.225 542.835 399.4C542.649 398.716 542.488 398.054 542.289 397.36C541.905 395.972 541.471 394.594 541.049 393.088C540.801 392.383 540.553 391.668 540.293 390.952C540.032 390.237 539.71 389.5 539.412 388.763C538.693 387.075 537.875 385.388 536.994 383.7C538.408 383.412 543.38 382.323 545.389 380.998C547.398 379.674 549.494 377.527 549.469 375.242C549.487 374.703 549.372 374.167 549.133 373.669C548.894 373.171 548.536 372.722 548.082 372.351C547.628 371.98 547.089 371.696 546.499 371.517C545.909 371.338 545.281 371.268 544.658 371.312C540.938 371.664 537.676 376.801 536.994 379.631C536.994 379.813 536.734 381.885 536.635 383.038C536.102 382.024 535.568 381.02 534.998 380.016C533.324 377.111 531.526 374.217 529.74 371.333C529.195 370.446 528.674 369.56 528.128 368.674C528.637 368.578 534.589 367.381 536.808 365.897C538.792 364.583 540.913 362.436 540.888 360.14C540.906 359.602 540.792 359.067 540.553 358.569C540.314 358.071 539.955 357.623 539.501 357.253C539.047 356.883 538.507 356.6 537.917 356.422C537.327 356.244 536.7 356.175 536.077 356.221C532.357 356.573 529.096 361.7 528.414 364.54C528.414 364.754 528.042 367.744 528.017 368.513C526.839 366.559 525.686 364.594 524.632 362.629C523.185 359.978 521.943 357.249 520.912 354.459C521.147 354.459 527.36 353.198 529.654 351.682C531.65 350.368 533.758 348.211 533.746 345.925C533.761 345.387 533.646 344.852 533.406 344.355C533.167 343.857 532.808 343.409 532.355 343.038C531.901 342.668 531.363 342.384 530.773 342.204C530.184 342.024 529.558 341.953 528.934 341.995C525.214 342.347 521.941 347.485 521.271 350.315C521.209 350.539 520.874 353.764 520.862 354.352C520.862 354.192 520.726 354.021 520.676 353.86C519.744 351.038 519.105 348.15 518.766 345.231C518.556 343.629 518.456 342.08 518.407 340.575C519.647 340.446 525.004 339.827 527.248 338.652C529.492 337.477 531.762 335.598 532.034 333.312C532.122 332.779 532.078 332.235 531.904 331.717C531.731 331.2 531.433 330.719 531.029 330.308C530.625 329.897 530.124 329.563 529.56 329.33C528.997 329.097 528.382 328.969 527.756 328.955C524.036 328.955 520.118 333.739 519.076 336.495C519.014 336.644 518.642 338.225 518.382 339.368C518.382 338.695 518.382 337.99 518.382 337.338C518.382 334.882 518.568 332.639 518.754 330.653C518.866 329.521 518.99 328.517 519.126 327.556C520.205 326.915 524.557 324.266 525.896 322.376C527.236 320.485 528.277 317.869 527.298 315.733C527.084 315.229 526.75 314.769 526.318 314.383C525.885 313.997 525.363 313.694 524.786 313.492C524.209 313.291 523.589 313.196 522.966 313.214C522.344 313.232 521.732 313.363 521.172 313.597C517.824 315.092 516.944 320.881 517.452 323.743C517.452 323.988 518.766 327.769 518.816 327.737H518.878C518.742 328.656 518.593 329.638 518.456 330.706C518.233 332.693 517.998 334.978 517.923 337.403C517.816 340.053 517.891 342.706 518.146 345.348C518.412 348.309 518.985 351.244 519.858 354.117V354.224C519.262 353.423 517.526 351.233 517.378 351.02C515.183 348.884 509.442 345.68 505.97 346.983C505.401 347.207 504.895 347.531 504.482 347.935C504.069 348.339 503.759 348.813 503.573 349.327C503.387 349.841 503.329 350.383 503.402 350.917C503.475 351.452 503.678 351.967 503.998 352.429C505.3 354.288 508.4 355.281 510.88 355.644ZM548.192 398.118C550.114 399.913 555.049 402.017 555.694 402.284C555.012 403.704 554.342 405.082 553.697 406.374C551.428 410.86 549.345 414.523 547.857 417.054C547.559 417.567 547.286 418.026 547.026 418.442H546.778C546.704 417.94 546.629 417.374 546.53 416.798C546.071 413.935 545.29 409.866 544.236 405.05C543.889 403.522 543.48 401.846 542.996 400.222C544.768 399.592 546.494 398.871 548.167 398.065L548.192 398.118Z" fill="#263238"/>
<path d="M575.36 340.361C575.422 340.361 576.6 336.58 576.6 336.335C577.059 333.472 575.992 327.694 572.607 326.285C572.037 326.063 571.419 325.947 570.794 325.945C570.168 325.943 569.55 326.055 568.977 326.272C568.405 326.49 567.893 326.809 567.474 327.209C567.054 327.608 566.737 328.079 566.544 328.592C565.638 330.728 566.792 333.387 568.156 335.202C569.78 337.328 575.36 340.361 575.36 340.361Z" fill="#263238"/>
<path d="M296.955 53.1223H73.6436V431.162H296.955V53.1223Z" stroke="#A1A1A1" stroke-linecap="round" stroke-linejoin="round"/>
<path d="M179.924 70.3385H95.1452V148.505H179.924V70.3385Z" stroke="#A1A1A1" stroke-linecap="round" stroke-linejoin="round"/>
<path d="M166.966 82.2894H108.103V136.554H166.966V82.2894Z" stroke="#A1A1A1" stroke-linecap="round" stroke-linejoin="round"/>
<path d="M108.103 82.2894L95.1452 70.3385" stroke="#A1A1A1" stroke-linecap="round" stroke-linejoin="round"/>
<path d="M166.966 136.554L179.924 148.505" stroke="#A1A1A1" stroke-linecap="round" stroke-linejoin="round"/>
<path d="M166.966 82.2894L179.924 70.3385" stroke="#A1A1A1" stroke-linecap="round" stroke-linejoin="round"/>
<path d="M108.103 136.554L95.1452 148.505" stroke="#A1A1A1" stroke-linecap="round" stroke-linejoin="round"/>
<path d="M280.748 70.3385H195.97V148.505H280.748V70.3385Z" stroke="#A1A1A1" stroke-linecap="round" stroke-linejoin="round"/>
<path d="M267.803 82.2894H208.94V136.554H267.803V82.2894Z" stroke="#A1A1A1" stroke-linecap="round" stroke-linejoin="round"/>
<path d="M208.94 82.2894L195.97 70.3385" stroke="#A1A1A1" stroke-linecap="round" stroke-linejoin="round"/>
<path d="M267.79 136.554L280.761 148.505" stroke="#A1A1A1" stroke-linecap="round" stroke-linejoin="round"/>
<path d="M267.79 82.2894L280.761 70.3385" stroke="#A1A1A1" stroke-linecap="round" stroke-linejoin="round"/>
<path d="M208.94 136.554L195.97 148.505" stroke="#A1A1A1" stroke-linecap="round" stroke-linejoin="round"/>
<path d="M179.924 168.413H95.1452V246.58H179.924V168.413Z" stroke="#A1A1A1" stroke-linecap="round" stroke-linejoin="round"/>
<path d="M166.966 180.364H108.103V234.629H166.966V180.364Z" stroke="#A1A1A1" stroke-linecap="round" stroke-linejoin="round"/>
<path d="M108.103 180.364L95.1452 168.413" stroke="#A1A1A1" stroke-linecap="round" stroke-linejoin="round"/>
<path d="M166.966 234.629L179.924 246.58" stroke="#A1A1A1" stroke-linecap="round" stroke-linejoin="round"/>
<path d="M166.966 180.364L179.924 168.413" stroke="#A1A1A1" stroke-linecap="round" stroke-linejoin="round"/>
<path d="M108.103 234.629L95.1452 246.58" stroke="#A1A1A1" stroke-linecap="round" stroke-linejoin="round"/>
<path d="M280.748 168.413H195.97V246.58H280.748V168.413Z" stroke="#A1A1A1" stroke-linecap="round" stroke-linejoin="round"/>
<path d="M267.803 180.364H208.94V234.629H267.803V180.364Z" stroke="#A1A1A1" stroke-linecap="round" stroke-linejoin="round"/>
<path d="M208.94 180.364L195.97 168.413" stroke="#A1A1A1" stroke-linecap="round" stroke-linejoin="round"/>
<path d="M267.79 234.629L280.761 246.58" stroke="#A1A1A1" stroke-linecap="round" stroke-linejoin="round"/>
<path d="M267.79 180.364L280.761 168.413" stroke="#A1A1A1" stroke-linecap="round" stroke-linejoin="round"/>
<path d="M208.94 234.629L195.97 246.58" stroke="#A1A1A1" stroke-linecap="round" stroke-linejoin="round"/>
<path d="M179.924 266.487H95.1452V344.654H179.924V266.487Z" stroke="#A1A1A1" stroke-linecap="round" stroke-linejoin="round"/>
<path d="M166.966 278.438H108.103V332.703H166.966V278.438Z" stroke="#A1A1A1" stroke-linecap="round" stroke-linejoin="round"/>
<path d="M108.103 278.438L95.1452 266.487" stroke="#A1A1A1" stroke-linecap="round" stroke-linejoin="round"/>
<path d="M166.966 332.703L179.924 344.654" stroke="#A1A1A1" stroke-linecap="round" stroke-linejoin="round"/>
<path d="M166.966 278.438L179.924 266.487" stroke="#A1A1A1" stroke-linecap="round" stroke-linejoin="round"/>
<path d="M108.103 332.703L95.1452 344.654" stroke="#A1A1A1" stroke-linecap="round" stroke-linejoin="round"/>
<path d="M280.748 266.487H195.97V344.654H280.748V266.487Z" stroke="#A1A1A1" stroke-linecap="round" stroke-linejoin="round"/>
<path d="M267.803 278.438H208.94V332.703H267.803V278.438Z" stroke="#A1A1A1" stroke-linecap="round" stroke-linejoin="round"/>
<path d="M208.94 278.438L195.97 266.487" stroke="#A1A1A1" stroke-linecap="round" stroke-linejoin="round"/>
<path d="M267.79 332.703L280.761 344.654" stroke="#A1A1A1" stroke-linecap="round" stroke-linejoin="round"/>
<path d="M267.79 278.438L280.761 266.487" stroke="#A1A1A1" stroke-linecap="round" stroke-linejoin="round"/>
<path d="M208.94 332.703L195.97 344.654" stroke="#A1A1A1" stroke-linecap="round" stroke-linejoin="round"/>
<path d="M179.924 364.562H95.1452V431.162H179.924V364.562Z" stroke="#A1A1A1" stroke-linecap="round" stroke-linejoin="round"/>
<path d="M166.966 376.513H108.103V430.778H166.966V376.513Z" stroke="#A1A1A1" stroke-linecap="round" stroke-linejoin="round"/>
<path d="M108.103 376.513L95.1452 364.562" stroke="#A1A1A1" stroke-linecap="round" stroke-linejoin="round"/>
<path d="M166.966 376.513L179.924 364.562" stroke="#A1A1A1" stroke-linecap="round" stroke-linejoin="round"/>
<path d="M280.748 364.562H195.97V431.162H280.748V364.562Z" stroke="#A1A1A1" stroke-linecap="round" stroke-linejoin="round"/>
<path d="M267.803 376.513H208.94V430.778H267.803V376.513Z" stroke="#A1A1A1" stroke-linecap="round" stroke-linejoin="round"/>
<path d="M208.94 376.513L195.97 364.562" stroke="#A1A1A1" stroke-linecap="round" stroke-linejoin="round"/>
<path d="M267.79 376.513L280.761 364.562" stroke="#A1A1A1" stroke-linecap="round" stroke-linejoin="round"/>
<path d="M92.2064 255.978C92.2064 254.793 91.7984 253.635 91.034 252.65C90.2697 251.664 89.1832 250.896 87.9121 250.443C86.641 249.989 85.2423 249.871 83.8929 250.102C82.5435 250.333 81.304 250.904 80.3311 251.742C79.3582 252.58 78.6957 253.647 78.4273 254.809C78.1589 255.972 78.2966 257.176 78.8231 258.271C79.3496 259.366 80.2413 260.302 81.3852 260.96C82.5292 261.618 83.8742 261.97 85.25 261.97C87.095 261.97 88.8643 261.338 90.1689 260.215C91.4735 259.091 92.2064 257.567 92.2064 255.978Z" stroke="#A1A1A1" stroke-linecap="round" stroke-linejoin="round"/>
<path d="M535.147 431.162C531.117 407.826 513.385 304.711 513.695 301.625C514.03 298.132 466.463 285.348 466.463 285.348L439.816 284.472V284.195L435.6 284.334L431.384 284.195V284.472L404.736 285.348C404.736 285.348 357.182 298.164 357.517 301.625C357.814 304.711 340.082 407.826 336.065 431.162H535.147Z" fill="#4A90E2" stroke="#263238" stroke-linecap="round" stroke-linejoin="round"/>
<path d="M512.876 300.61L513.695 301.625C513.72 301.336 513.422 300.994 512.876 300.61Z" fill="#263238" stroke="#263238" stroke-linecap="round" stroke-linejoin="round"/>
<path d="M466.773 308.652L505.56 297.31C492.057 292.269 466.463 285.391 466.463 285.391L454.41 284.996L466.773 308.652Z" fill="#263238" stroke="#263238" stroke-linecap="round" stroke-linejoin="round"/>
<path d="M514.104 305.363L528.24 431.162H535.196C531.526 410.112 516.795 324.48 514.104 305.363Z" fill="#263238" stroke="#263238" stroke-linecap="round" stroke-linejoin="round"/>
<path d="M533.274 431.162L509.962 389.98L497.624 390.226L496.037 431.162H533.274Z" fill="#4A90E2" stroke="#263238" stroke-linecap="round" stroke-linejoin="round"/>
<path d="M491.449 341.984V337.05" stroke="#263238" stroke-linecap="round" stroke-linejoin="round"/>
<path d="M491.449 387.193V347.634" stroke="#263238" stroke-linecap="round" stroke-linejoin="round"/>
<path d="M375.137 431.162L373.55 390.226L361.212 389.98L337.9 431.162H375.137Z" fill="#4A90E2" stroke="#263238" stroke-linecap="round" stroke-linejoin="round"/>
<path d="M379.725 352.333V337.05" stroke="#263238" stroke-linecap="round" stroke-linejoin="round"/>
<path d="M379.725 387.193V356.093" stroke="#263238" stroke-linecap="round" stroke-linejoin="round"/>
<path d="M422.282 311.504L435.773 326.605L420.93 410.571L438.464 429.453L452.637 409.119L438.464 325.74L452.302 310.916L439.146 297.555L422.282 311.504Z" fill="#263238" stroke="#263238" stroke-linecap="round" stroke-linejoin="round"/>
<path d="M438.191 306.516C438.191 306.516 424.973 312.924 421.265 316.982C417.558 321.041 408.791 328.891 408.791 329.798C408.791 330.706 400.359 302.789 400.359 294.074C400.359 285.359 399.342 286.224 402.045 283.607C404.748 280.991 413.205 273.728 415.536 272.863C417.868 271.998 458.366 272.575 460.734 273.44C463.103 274.305 469.166 284.772 470.853 288.264C471.689 289.856 472.365 291.507 472.874 293.198C472.874 293.198 469.154 312.08 468.484 316.694C467.815 321.308 462.756 331.219 462.756 331.219C462.756 331.219 447.243 315.541 446.226 313.501C445.21 311.461 438.191 306.516 438.191 306.516Z" fill="#4A90E2" stroke="#263238" stroke-linecap="round" stroke-linejoin="round"/>
<path d="M413.503 261.532L413.862 283.319L438.191 306.559L459.346 285.06L460.052 262.397L413.503 261.532Z" fill="white" stroke="#263238" stroke-linecap="round" stroke-linejoin="round"/>
<path d="M426.647 270.268L428.06 272.308L457.238 287.217L459.346 285.06L460.052 262.397L423.696 261.724L426.647 270.268Z" fill="#263238"/>
<path d="M407.873 228.947C407.873 228.947 404.029 218.331 398.152 221.012C392.274 223.693 394.729 235.131 398.263 238.463C400.849 240.651 404.01 242.27 407.476 243.184C407.476 243.184 405.678 258.232 413.503 263.764C421.327 269.296 424.663 276.121 429.4 276.302C434.136 276.484 445.606 276.302 447.652 275.843C449.698 275.384 460.896 267.908 463.264 261.318C464.715 257.187 465.614 252.927 465.942 248.62C465.942 248.62 478.28 238.623 478.913 232.835C479.545 227.046 473.953 225.081 471.175 225.85L468.435 226.619L470.022 208.933C470.022 208.933 486.254 208.399 486.328 206.946C486.402 205.494 479.706 197.964 479.706 197.964C479.706 197.964 499.621 198.146 500.997 190.937C502.374 183.728 485.212 176.37 480.078 177.63C474.945 178.89 466.786 180.022 466.786 180.022C466.786 180.022 478.615 173.208 473.395 169.812C468.174 166.416 458.019 166.896 452.092 170.442C449.023 172.182 446.198 174.221 443.672 176.519C440.089 173.525 435.406 171.7 430.429 171.361C422.022 170.741 417.136 173.753 419.455 174.714C420.793 175.242 421.922 176.096 422.704 177.171C422.704 177.171 405.666 180.3 403.521 188.919C401.376 197.537 407.873 228.947 407.873 228.947Z" fill="white" stroke="#263238" stroke-linecap="round" stroke-linejoin="round"/>
<path d="M471.2 225.85L469.055 226.448L467.257 230.346L466.017 248.62C466.017 248.62 478.355 238.623 478.987 232.835C479.62 227.046 473.916 225.081 471.2 225.85Z" fill="#263238"/>
<path d="M419.852 227.377L428.817 228.071" stroke="#263238" stroke-linecap="round" stroke-linejoin="round"/>
<path d="M450.48 228.904L459.085 228.531" stroke="#263238" stroke-linecap="round" stroke-linejoin="round"/>
<path d="M403.732 222.261L407.873 228.947C406.975 226.521 405.572 224.255 403.732 222.261Z" stroke="#263238" stroke-linecap="round" stroke-linejoin="round"/>
<path d="M500.96 190.937C502.349 183.717 485.373 177.63 480.041 177.63C475.465 177.616 470.936 178.431 466.748 180.022C466.748 180.022 478.578 173.208 473.358 169.812C468.137 166.416 457.982 166.896 452.054 170.442C448.986 172.182 446.16 174.221 443.635 176.519C440.052 173.525 435.368 171.7 430.392 171.361C421.984 170.741 417.099 173.753 419.418 174.714C420.756 175.242 421.885 176.096 422.666 177.171C422.666 177.171 405.629 180.3 403.484 188.919C401.338 197.537 407.836 228.926 407.836 228.926L410.589 227.858C410.464 224.772 411.204 221.706 412.746 218.919C415.375 213.792 418.512 211.87 418.698 208.1C418.884 204.33 414.569 196.597 420.062 194.782C425.556 192.966 458.502 194.782 461.9 195.508C465.298 196.234 467.443 199.214 466.19 203.817C464.938 208.42 463.859 209.83 465.087 212.212C466.314 214.593 467.567 222.486 467.468 224.803L467.356 227.121L467.195 230.325L468.856 226.469L468.398 226.598L469.985 208.911C469.985 208.911 486.216 208.377 486.291 206.925C486.365 205.473 479.669 197.943 479.669 197.943C479.669 197.943 499.621 198.146 500.96 190.937Z" fill="#263238" stroke="#263238" stroke-linecap="round" stroke-linejoin="round"/>
<path d="M469.96 195.529C471.217 196.121 472.527 196.625 473.878 197.035" stroke="#6E6E6E" stroke-linecap="round" stroke-linejoin="round"/>
<path d="M433.752 187.007C433.752 187.007 452.476 194.088 456.221 193.18C459.966 192.272 457.56 185.832 457.56 185.832C460.003 188.78 462.965 191.382 466.339 193.543" stroke="#6E6E6E" stroke-linecap="round" stroke-linejoin="round"/>
<path d="M446.288 217.338L443.808 226.256C443.808 226.256 444.788 233.273 445.582 237.662C446.097 240.088 445.849 242.588 444.862 244.903L431.384 244.39L448.062 247.413L450.219 243.451L446.053 225.743L446.288 217.338Z" fill="#263238" stroke="#263238" stroke-linecap="round" stroke-linejoin="round"/>
<path d="M425.704 249.698C427.394 251.355 429.763 252.384 432.314 252.571L444.441 253.031C445.509 252.996 446.556 252.763 447.51 252.348C448.465 251.934 449.304 251.347 449.971 250.628" stroke="#263238" stroke-linecap="round" stroke-linejoin="round"/>
<path d="M428.68 222.913C428.606 224.205 427.924 225.231 427.143 225.198C426.362 225.166 425.779 224.13 425.903 222.806C426.027 221.482 426.659 220.489 427.44 220.51C428.222 220.531 428.742 221.621 428.68 222.913Z" fill="#263238" stroke="#263238" stroke-linecap="round" stroke-linejoin="round"/>
<path d="M452.972 223.842C452.91 225.134 452.216 226.16 451.434 226.128C450.653 226.096 450.083 225.06 450.194 223.735C450.306 222.411 450.951 221.418 451.732 221.45C452.513 221.482 453.034 222.55 452.972 223.842Z" fill="#263238" stroke="#263238" stroke-linecap="round" stroke-linejoin="round"/>
<path d="M420.819 213.739C425.818 212.41 431.211 212.722 435.959 214.615" stroke="#263238" stroke-width="3" stroke-linecap="round" stroke-linejoin="round"/>
<path d="M447.417 215.052C447.417 215.052 453.989 212.105 459.197 215.789" stroke="#263238" stroke-width="3" stroke-linecap="round" stroke-linejoin="round"/>
<path d="M458.056 376.075C454.247 373.888 450.762 371.309 447.677 368.396C447.083 367.806 446.269 367.413 445.374 367.286C444.479 367.159 443.561 367.306 442.779 367.702L440.547 368.77C439.903 369.087 439.379 369.559 439.04 370.128C438.701 370.696 438.561 371.338 438.638 371.974C438.861 374.11 439.605 377.314 441.998 379.354C444.253 381.316 446.831 382.982 449.649 384.298L460.734 380.678L458.056 376.075Z" fill="white" stroke="#263238" stroke-linecap="round" stroke-linejoin="round"/>
<path d="M409.473 376.075C409.473 376.075 416.553 372.091 420.496 367.702C420.869 367.296 421.4 367.02 421.99 366.926C422.581 366.831 423.191 366.925 423.708 367.189L427.713 369.176C428.111 369.372 428.437 369.66 428.656 370.007C428.875 370.354 428.978 370.746 428.953 371.141C428.842 373.159 428.246 377.015 425.518 379.364C423.263 381.326 420.685 382.992 417.868 384.309L406.782 380.689L409.473 376.075Z" fill="white" stroke="#263238" stroke-linecap="round" stroke-linejoin="round"/>
<path d="M509.119 431.162V380.689C509.119 379.785 508.702 378.918 507.961 378.28C507.219 377.641 506.213 377.282 505.164 377.282H365.44C364.92 377.28 364.404 377.367 363.923 377.538C363.442 377.709 363.004 377.959 362.635 378.276C362.267 378.592 361.974 378.968 361.775 379.382C361.575 379.796 361.472 380.24 361.472 380.689V431.162H509.119Z" fill="#737373" stroke="#263238" stroke-linecap="round" stroke-linejoin="round"/>
<path d="M507.16 377.741C506.569 377.443 505.898 377.284 505.213 377.282H365.44C364.826 377.281 364.22 377.404 363.671 377.641C363.122 377.879 362.645 378.224 362.278 378.649C371.74 385.505 421.352 420.952 437.856 421.497C454.931 422.074 496.471 386.99 507.16 377.741Z" stroke="#263238" stroke-linecap="round" stroke-linejoin="round"/>
<path d="M445.706 408.937H429.809V430.842H445.706V408.937Z" fill="#263238" stroke="#263238" stroke-linecap="round" stroke-linejoin="round"/>
<path d="M410.874 363.793H405.889C404.321 363.793 403.05 364.888 403.05 366.239V380.817C403.05 382.168 404.321 383.262 405.889 383.262H410.874C412.442 383.262 413.714 382.168 413.714 380.817V366.239C413.714 364.888 412.442 363.793 410.874 363.793Z" fill="white" stroke="#263238" stroke-linecap="round" stroke-linejoin="round"/>
<path d="M404.699 383.081C405.033 383.201 405.391 383.263 405.753 383.262H411.01C411.442 383.265 411.867 383.177 412.25 383.006V377.463H404.736L404.699 383.081Z" stroke="#263238" stroke-linecap="round" stroke-linejoin="round"/>
<path d="M405.455 370.19H411.085" stroke="#263238" stroke-linecap="round" stroke-linejoin="round"/>
<path d="M406.584 368.46C407.368 368.18 408.218 368.063 409.065 368.119C409.911 368.175 410.731 368.401 411.457 368.78" stroke="#263238" stroke-linecap="round" stroke-linejoin="round"/>
<path d="M387.984 363.793H382.999C381.431 363.793 380.159 364.888 380.159 366.239V380.817C380.159 382.168 381.431 383.262 382.999 383.262H387.984C389.552 383.262 390.823 382.168 390.823 380.817V366.239C390.823 364.888 389.552 363.793 387.984 363.793Z" fill="white" stroke="#263238" stroke-linecap="round" stroke-linejoin="round"/>
<path d="M381.808 383.081C382.142 383.201 382.501 383.263 382.862 383.262H388.12C388.552 383.268 388.978 383.18 389.36 383.006V377.463H381.92L381.808 383.081Z" stroke="#263238" stroke-linecap="round" stroke-linejoin="round"/>
<path d="M382.565 370.19H388.194" stroke="#263238" stroke-linecap="round" stroke-linejoin="round"/>
<path d="M383.681 368.46C384.467 368.18 385.319 368.063 386.168 368.119C387.017 368.174 387.838 368.401 388.566 368.78" stroke="#263238" stroke-linecap="round" stroke-linejoin="round"/>
<path d="M375.782 367.499H372.831C371.263 367.499 369.991 368.594 369.991 369.945V380.817C369.991 382.167 371.263 383.262 372.831 383.262H375.782C377.35 383.262 378.622 382.167 378.622 380.817V369.945C378.622 368.594 377.35 367.499 375.782 367.499Z" fill="white" stroke="#263238" stroke-linecap="round" stroke-linejoin="round"/>
<path d="M371.33 383.113C371.597 383.212 371.884 383.263 372.174 383.262H376.439C376.775 383.256 377.105 383.187 377.406 383.06V378.563H371.33V383.113Z" stroke="#263238" stroke-linecap="round" stroke-linejoin="round"/>
<path d="M371.938 372.668H376.489" stroke="#263238" stroke-linecap="round" stroke-linejoin="round"/>
<path d="M372.843 371.237C373.48 371.009 374.169 370.914 374.857 370.958C375.544 371.003 376.209 371.186 376.799 371.493" stroke="#263238" stroke-linecap="round" stroke-linejoin="round"/>
<path d="M399.057 361.24H394.072C392.504 361.24 391.232 362.335 391.232 363.686V380.817C391.232 382.167 392.504 383.262 394.072 383.262H399.057C400.625 383.262 401.896 382.167 401.896 380.817V363.686C401.896 362.335 400.625 361.24 399.057 361.24Z" fill="white" stroke="#263238" stroke-linecap="round" stroke-linejoin="round"/>
<path d="M392.882 383.081C393.211 383.201 393.565 383.263 393.923 383.262H399.193C399.625 383.268 400.051 383.18 400.433 383.006V377.463H392.931L392.882 383.081Z" stroke="#263238" stroke-linecap="round" stroke-linejoin="round"/>
<path d="M393.626 370.19H399.268" stroke="#263238" stroke-linecap="round" stroke-linejoin="round"/>
<path d="M394.754 368.46C395.541 368.18 396.393 368.063 397.241 368.119C398.09 368.174 398.911 368.401 399.64 368.78" stroke="#263238" stroke-linecap="round" stroke-linejoin="round"/>
<path d="M458.391 383.262H463.376C464.944 383.262 466.215 382.167 466.215 380.817V366.239C466.215 364.888 464.944 363.793 463.376 363.793H458.391C456.822 363.793 455.551 364.888 455.551 366.239V380.817C455.551 382.167 456.822 383.262 458.391 383.262Z" fill="white" stroke="#263238" stroke-linecap="round" stroke-linejoin="round"/>
<path d="M464.566 383.081C464.232 383.201 463.874 383.263 463.512 383.262H458.254C457.823 383.268 457.396 383.18 457.014 383.006V377.463H464.454L464.566 383.081Z" stroke="#263238" stroke-linecap="round" stroke-linejoin="round"/>
<path d="M463.81 370.19H458.18" stroke="#263238" stroke-linecap="round" stroke-linejoin="round"/>
<path d="M462.694 368.46C461.907 368.18 461.055 368.063 460.206 368.119C459.358 368.174 458.536 368.401 457.808 368.78" stroke="#263238" stroke-linecap="round" stroke-linejoin="round"/>
<path d="M481.281 383.262H486.266C487.834 383.262 489.106 382.167 489.106 380.817V366.239C489.106 364.888 487.834 363.793 486.266 363.793H481.281C479.713 363.793 478.442 364.888 478.442 366.239V380.817C478.442 382.167 479.713 383.262 481.281 383.262Z" fill="white" stroke="#263238" stroke-linecap="round" stroke-linejoin="round"/>
<path d="M487.456 383.081C487.127 383.201 486.773 383.263 486.415 383.262H481.12C480.688 383.267 480.262 383.179 479.88 383.006V377.463H487.382L487.456 383.081Z" stroke="#263238" stroke-linecap="round" stroke-linejoin="round"/>
<path d="M486.712 370.19H481.083" stroke="#263238" stroke-linecap="round" stroke-linejoin="round"/>
<path d="M485.584 368.46C484.797 368.18 483.945 368.063 483.097 368.119C482.248 368.174 481.427 368.401 480.698 368.78" stroke="#263238" stroke-linecap="round" stroke-linejoin="round"/>
<path d="M493.495 383.252H496.446C498.015 383.252 499.286 382.157 499.286 380.806V369.934C499.286 368.583 498.015 367.488 496.446 367.488H493.495C491.927 367.488 490.656 368.583 490.656 369.934V380.806C490.656 382.157 491.927 383.252 493.495 383.252Z" fill="white" stroke="#263238" stroke-linecap="round" stroke-linejoin="round"/>
<path d="M497.947 383.113C497.676 383.213 497.385 383.263 497.091 383.262H492.838C492.502 383.258 492.171 383.189 491.871 383.06V378.563H497.947V383.113Z" stroke="#263238" stroke-linecap="round" stroke-linejoin="round"/>
<path d="M497.339 372.668H492.776" stroke="#263238" stroke-linecap="round" stroke-linejoin="round"/>
<path d="M496.422 371.237C495.787 371.009 495.1 370.914 494.414 370.958C493.729 371.003 493.066 371.186 492.478 371.493" stroke="#263238" stroke-linecap="round" stroke-linejoin="round"/>
<path d="M470.208 383.252H475.193C476.761 383.252 478.032 382.157 478.032 380.806V363.675C478.032 362.325 476.761 361.23 475.193 361.23H470.208C468.64 361.23 467.368 362.325 467.368 363.675V380.806C467.368 382.157 468.64 383.252 470.208 383.252Z" fill="white" stroke="#263238" stroke-linecap="round" stroke-linejoin="round"/>
<path d="M476.383 383.081C476.054 383.201 475.699 383.263 475.342 383.262H470.084C469.652 383.266 469.226 383.178 468.844 383.006V377.463H476.346L476.383 383.081Z" stroke="#263238" stroke-linecap="round" stroke-linejoin="round"/>
<path d="M475.639 370.19H470.01" stroke="#263238" stroke-linecap="round" stroke-linejoin="round"/>
<path d="M474.511 368.46C473.726 368.18 472.876 368.063 472.03 368.119C471.183 368.175 470.364 368.401 469.638 368.78" stroke="#263238" stroke-linecap="round" stroke-linejoin="round"/>
<path d="M143.592 431.162H585.354" stroke="#263238" stroke-linecap="round" stroke-linejoin="round"/>
<path d="M273.767 400.895L281.554 434.484H255.552L273.767 400.895Z" fill="#263238" stroke="#263238" stroke-linecap="round" stroke-linejoin="round"/>
<path d="M264.901 437.164H124.223L133.089 400.895H273.767L264.901 437.164Z" fill="#4A90E2" stroke="#263238" stroke-linecap="round" stroke-linejoin="round"/>
<path d="M149.284 160.905C149.284 160.905 118.036 176.092 117.242 179.189C116.448 182.286 118.036 215.074 116.833 217.488C115.63 219.901 98.8156 241.635 98.8156 253.02C98.8156 264.405 98.4188 326.167 98.4188 326.167L75.64 361.7L130.919 378.948L158.559 342.721C158.559 342.721 176.985 328.581 180.99 325.131L174.518 159.88L149.284 160.905Z" fill="white" stroke="#263238" stroke-linecap="round" stroke-linejoin="round"/>
<path d="M134.862 187.124C134.862 187.124 149.68 190.926 154.888 195.412" stroke="#263238" stroke-linecap="round" stroke-linejoin="round"/>
<path d="M139.264 209.894C139.264 209.894 143.679 208.826 151.664 209.552" stroke="#263238" stroke-linecap="round" stroke-linejoin="round"/>
<path d="M138.421 107.387C138.421 107.387 177.233 335.277 177.816 343.415C178.399 351.554 178.994 361.646 178.994 361.646C178.994 361.646 226.622 351.522 257.784 347.976C288.945 344.43 392.435 336.837 392.435 336.837C392.435 336.837 365.974 180.342 362.452 159.549C358.93 138.755 347.746 75.9882 347.746 75.9882C347.746 75.9882 236.034 84.5963 201.339 84.5963C179.093 84.7202 156.887 86.2444 134.9 89.1567L138.421 107.387Z" fill="white" stroke="#263238" stroke-linecap="round" stroke-linejoin="round"/>
<path d="M300.874 201.735L346.084 197.58C344.112 190.916 342.748 186.195 342.748 185.832C342.748 184.956 334.416 183.397 330.621 182.724C329.877 181.656 328.389 179.734 327.757 179.52H327.583L327.447 178.11C327.88 177.542 328.183 176.908 328.34 176.241C328.524 175.117 328.565 173.978 328.464 172.845C328.811 172.45 331.216 169.705 331.13 168.21C331.127 167.896 331.032 167.587 330.855 167.313C330.677 167.038 330.422 166.807 330.113 166.64C329.879 166.538 329.622 166.482 329.361 166.477C329.099 166.471 328.839 166.516 328.6 166.608L328.129 166.811L327.757 162.443C329.152 162.317 330.511 161.984 331.774 161.46C331.936 161.353 331.923 161.289 331.923 161.247C331.392 160.486 330.727 159.802 329.952 159.217C331.105 159.047 334.998 158.331 335.023 156.558C334.977 156.152 334.811 155.762 334.542 155.426C334.273 155.09 333.91 154.818 333.486 154.636C331.973 153.792 329.617 153.311 328.712 153.664C327.806 154.016 326.69 154.358 325.984 154.561C326.529 154.048 327.36 153.162 327.224 152.425C327.199 152.291 327.138 152.164 327.045 152.054C326.953 151.945 326.831 151.856 326.69 151.795C325.728 151.476 324.683 151.393 323.669 151.556C322.656 151.718 321.714 152.118 320.949 152.713C320.266 153.257 319.644 153.854 319.089 154.497C317.993 153.868 316.683 153.575 315.369 153.664C313.658 153.76 312.381 154.358 312.319 154.839C312.308 154.916 312.331 154.994 312.384 155.058C312.437 155.121 312.515 155.165 312.604 155.18C312.879 155.249 313.134 155.369 313.348 155.533C312.443 155.853 309.132 157.199 308.983 159.314C308.977 159.385 308.977 159.456 308.983 159.527V159.858C308.983 159.912 308.983 159.976 308.983 160.05C308.983 160.125 308.983 160.05 308.983 160.125V160.403V160.467V160.713C308.983 160.713 308.983 160.787 308.983 160.819C308.977 160.894 308.977 160.969 308.983 161.044V161.161C308.983 161.247 308.983 161.332 309.045 161.418V161.503L309.12 161.855V161.952L309.194 162.229V162.357C309.194 162.443 309.194 162.528 309.256 162.614V162.731C309.256 162.849 309.256 162.966 309.355 163.073L309.467 163.468V163.575C309.467 163.671 309.529 163.767 309.554 163.874V163.991C309.554 164.088 309.554 164.194 309.653 164.301V164.387C309.74 164.654 309.826 164.931 309.913 165.188V165.262L310.025 165.593V165.668C310.025 165.796 310.112 165.914 310.149 166.031C310.236 166.298 310.335 166.565 310.422 166.811C310.422 166.928 310.508 167.057 310.558 167.163L311.054 168.52C311.054 168.52 311.054 168.52 310.992 168.52L310.918 168.424L310.831 168.349L310.719 168.231C310.683 168.206 310.65 168.177 310.62 168.146L310.558 168.093L310.459 168.018L310.384 167.964C310.179 167.816 309.938 167.71 309.678 167.655C309.507 167.615 309.329 167.611 309.156 167.643C308.984 167.674 308.823 167.741 308.686 167.836C308.442 168.011 308.25 168.232 308.125 168.483C308 168.733 307.946 169.006 307.966 169.278C307.977 170.52 308.53 171.714 309.516 172.621C310.283 173.096 311.165 173.413 312.096 173.55C312.096 174.18 312.492 177.256 314.352 178.527L314.687 180.93C313.715 181.82 312.804 182.758 311.959 183.739C311.649 184.123 311.538 184.283 311.538 184.561C307.818 185.971 300.601 188.833 300.787 189.666C301.32 189.997 301.171 194.867 300.874 201.735Z" fill="#263238"/>
<path d="M353.04 190.51C353.072 188.696 352.478 186.914 351.335 185.391C350.191 183.867 348.548 182.67 346.614 181.95C344.68 181.231 342.542 181.021 340.47 181.348C338.398 181.675 336.485 182.524 334.973 183.788C333.461 185.051 332.418 186.672 331.976 188.446C331.534 190.22 331.712 192.067 332.488 193.754C333.265 195.44 334.605 196.891 336.338 197.922C338.072 198.953 340.121 199.517 342.228 199.545C343.626 199.564 345.016 199.344 346.316 198.9C347.617 198.456 348.803 197.796 349.807 196.957C350.811 196.118 351.613 195.116 352.168 194.01C352.723 192.904 353.019 191.715 353.04 190.51Z" fill="#4A90E2" stroke="#263238" stroke-linecap="round" stroke-linejoin="round"/>
<path d="M338.036 188.694L342.959 193.618L352.631 178.634" stroke="#263238" stroke-width="3" stroke-linecap="round" stroke-linejoin="round"/>
<path d="M193.465 174.842L286.502 167.559" stroke="#263238" stroke-linecap="round" stroke-linejoin="round"/>
<path d="M195.151 186.494L288.188 179.21" stroke="#263238" stroke-linecap="round" stroke-linejoin="round"/>
<path d="M239.928 194.782L289.875 190.873" stroke="#263238" stroke-linecap="round" stroke-linejoin="round"/>
<path d="M196.838 198.157L230.776 195.497" stroke="#263238" stroke-linecap="round" stroke-linejoin="round"/>
<path d="M198.536 209.809L291.574 202.525" stroke="#263238" stroke-linecap="round" stroke-linejoin="round"/>
<path d="M260.97 219.421L350.771 211.998" stroke="#263238" stroke-linecap="round" stroke-linejoin="round"/>
<path d="M201.066 224.376L254.188 219.987" stroke="#263238" stroke-linecap="round" stroke-linejoin="round"/>
<path d="M317.031 231.019L353.313 228.018" stroke="#263238" stroke-linecap="round" stroke-linejoin="round"/>
<path d="M203.608 240.407L306.739 231.873" stroke="#263238" stroke-linecap="round" stroke-linejoin="round"/>
<path d="M328.712 246.292L355.855 244.049" stroke="#263238" stroke-linecap="round" stroke-linejoin="round"/>
<path d="M249.885 252.817L319.498 247.06" stroke="#263238" stroke-linecap="round" stroke-linejoin="round"/>
<path d="M206.15 256.427L243.424 253.351" stroke="#263238" stroke-linecap="round" stroke-linejoin="round"/>
<path d="M328.811 262.525L358.385 260.079" stroke="#263238" stroke-linecap="round" stroke-linejoin="round"/>
<path d="M208.68 272.457L311.054 263.988" stroke="#263238" stroke-linecap="round" stroke-linejoin="round"/>
<path d="M250.926 285.199L360.927 276.099" stroke="#263238" stroke-linecap="round" stroke-linejoin="round"/>
<path d="M211.222 288.488L236.691 286.374" stroke="#263238" stroke-linecap="round" stroke-linejoin="round"/>
<path d="M295.021 297.79L363.469 292.13" stroke="#263238" stroke-linecap="round" stroke-linejoin="round"/>
<path d="M213.764 304.508L285.634 298.57" stroke="#263238" stroke-linecap="round" stroke-linejoin="round"/>
<path d="M354.268 309.122L365.998 308.15" stroke="#263238" stroke-linecap="round" stroke-linejoin="round"/>
<path d="M286.502 314.729L343.976 309.976" stroke="#263238" stroke-linecap="round" stroke-linejoin="round"/>
<path d="M216.293 320.539L276.446 315.562" stroke="#263238" stroke-linecap="round" stroke-linejoin="round"/>
<path d="M141.67 246.473C141.67 246.473 148.478 227.153 151.689 218.523C154.901 209.894 156.897 202.995 159.303 195.754C161.708 188.513 160.543 172.642 160.543 169.534C160.543 166.426 182.181 167.462 184.983 167.804C187.786 168.146 195.399 208.869 192.994 217.146C190.588 225.423 181.834 232.322 181.834 237.149C181.834 241.977 181.424 251.3 181.424 253.372C181.424 255.444 187.438 275.8 187.835 284.761C188.232 293.721 182.23 307.189 181.028 308.567C179.825 309.944 151.788 338.93 151.788 338.93" fill="white"/>
<path d="M141.67 246.473C141.67 246.473 148.478 227.153 151.689 218.523C154.901 209.894 156.897 202.995 159.303 195.754C161.708 188.513 160.543 172.642 160.543 169.534C160.543 166.426 182.181 167.462 184.983 167.804C187.786 168.146 195.399 208.869 192.994 217.146C190.588 225.423 181.834 232.322 181.834 237.149C181.834 241.977 181.424 251.3 181.424 253.372C181.424 255.444 187.438 275.8 187.835 284.761C188.232 293.721 182.23 307.189 181.028 308.567C179.825 309.944 151.788 338.93 151.788 338.93" stroke="#263238" stroke-linecap="round" stroke-linejoin="round"/>
<path d="M162.899 190.926C162.899 190.926 172.112 187.477 179.726 190.232C179.726 190.232 180.532 174.02 176.117 169.534" stroke="#263238" stroke-linecap="round" stroke-linejoin="round"/>
<path d="M158.497 205.419C163.101 206.175 167.864 205.691 172.137 204.031" stroke="#263238" stroke-linecap="round" stroke-linejoin="round"/>
<path d="M159.7 201.959C159.7 201.959 168.107 197.826 177.32 200.891" stroke="#263238" stroke-linecap="round" stroke-linejoin="round"/>
<path d="M175.324 198.167C173.409 197.48 171.346 197.155 169.273 197.214C167.2 197.273 165.166 197.714 163.308 198.509" stroke="#263238" stroke-linecap="round" stroke-linejoin="round"/>
<path d="M81.3812 345.915C81.3812 345.915 106.665 343.383 127.261 355.035C147.858 366.687 153.76 381.361 153.76 381.361L136.71 411.757C136.71 411.757 107.26 386.936 87.2712 380.86C67.2824 374.783 64.3312 374.281 64.3312 374.281L81.3812 345.915Z" fill="white" stroke="#263238" stroke-linecap="round" stroke-linejoin="round"/>
<path d="M44.64 388.143C60.6112 419.938 88.2508 447.738 129.307 469.429L152.991 409.386C152.991 409.386 136.524 382.045 117.118 372.924C97.712 363.804 64.79 360.268 64.79 360.268L44.64 388.143Z" fill="#263238" stroke="#263238" stroke-linecap="round" stroke-linejoin="round"/>
<path d="M186.694 152.991L340.628 142.792" stroke="#4A90E2" stroke-linecap="round" stroke-linejoin="round"/>
<path d="M190.754 103.336L191.431 103.063C192.064 103.017 192.462 103.83 192.626 105.502L194.122 111.876L194.244 111.979L197.341 110.576C197.77 110.545 198.034 110.853 198.135 111.5C198.182 111.983 197.057 112.655 194.76 113.514L194.654 113.578L194.665 113.689C194.703 114.079 195.517 116.069 197.106 119.658L197.111 119.714C197.146 120.067 196.886 120.385 196.333 120.668C195.793 120.707 195.376 120.092 195.083 118.823C194.564 117.925 193.893 116.43 193.069 114.338L192.957 114.346C190.568 115.025 189.39 115.541 189.425 115.894C188.368 118.889 187.495 120.412 186.806 120.462C186.415 120.491 186.158 120.257 186.034 119.76C185.991 119.315 186.399 118.406 187.258 117.033L187.609 116.026L186.911 116.076L186.391 116.226C185.686 116.109 185.307 115.781 185.255 115.242C185.47 114.572 185.848 114.217 186.388 114.178L187.113 114.406C188.156 114.33 188.64 113.911 188.565 113.15C189.296 110.851 190.026 107.58 190.754 103.336ZM191.502 108.39L190.34 113.47C191.838 113.062 192.573 112.718 192.546 112.44C191.999 109.729 191.651 108.379 191.502 108.39ZM203.463 101.375L211.789 100.237C212.031 100.219 212.286 100.435 212.555 100.883C212.624 101.589 211.84 102.001 210.201 102.12L205.342 102.754L205.235 102.818C205.997 105.812 206.793 111.545 207.622 120.017C207.609 120.841 207.351 121.271 206.849 121.308C206.365 121.343 206.049 120.992 205.902 120.254L205.269 113.789C204.847 109.479 204.299 105.898 203.626 103.047C200.325 103.605 198.695 104.097 198.737 104.525L198.496 104.654C197.903 104.529 197.585 104.253 197.543 103.826C197.443 102.804 199.416 101.987 203.463 101.375ZM215.326 100.513L223.652 99.3754C223.894 99.3578 224.15 99.5731 224.419 100.021C224.488 100.727 223.703 101.14 222.065 101.259L217.205 101.892L217.099 101.956C217.861 104.951 218.656 110.684 219.486 119.155C219.473 119.979 219.215 120.41 218.712 120.446C218.228 120.481 217.912 120.13 217.765 119.392L217.132 112.927C216.71 108.617 216.163 105.037 215.49 102.185C212.188 102.743 210.558 103.236 210.6 103.663L210.36 103.793C209.766 103.668 209.448 103.391 209.407 102.964C209.307 101.942 211.28 101.125 215.326 100.513ZM230.269 100.944C230.604 100.919 230.865 101.19 231.052 101.757C231.084 102.091 230.543 102.598 229.429 103.278C228.1 104.647 227.233 106.899 226.828 110.034L226.877 110.536C228.418 109.619 229.535 109.051 230.226 108.833C230.449 108.817 230.738 108.992 231.093 109.359L231.145 109.889C231.165 110.093 230.386 110.561 228.807 111.293C227.644 112.051 227.067 112.477 227.076 112.57L227.101 112.821C227.202 113.861 227.961 114.713 229.376 115.378L230.342 115.476C230.956 115.431 231.831 114.984 232.967 114.135L233.302 114.11C233.711 114.268 233.933 114.523 233.967 114.876L233.984 115.043C232.948 116.334 231.732 117.031 230.335 117.132C228.343 117.277 226.76 116.045 225.586 113.436L223.862 113.926C222.993 113.858 222.537 113.61 222.495 113.183C222.454 112.756 222.675 112.431 223.159 112.209L223.813 112.274C224.753 111.925 225.218 111.685 225.205 111.555C224.896 108.397 225.81 105.384 227.948 102.515C229.067 101.499 229.841 100.975 230.269 100.944ZM242.311 99.6479L242.591 99.6276C243.112 99.5898 243.44 99.8747 243.574 100.482C243.627 101.021 242.918 101.344 241.447 101.451C239.17 102.514 237.706 103.93 237.054 105.699L236.938 106.521L236.954 106.688C237.034 107.506 237.623 107.875 238.722 107.795L241.777 107.405C243.844 107.254 245.338 108.156 246.261 110.11L246.524 111.073C246.713 113.005 245.322 114.884 242.351 116.709C241.445 117.036 240.643 117.272 239.945 117.416C238.046 117.554 236.601 116.584 235.61 114.504C235.315 113.796 235.132 113.07 235.059 112.327C235.037 112.104 235.191 111.859 235.521 111.592L235.857 111.567C236.434 111.525 236.794 112.238 236.938 113.706C237.564 115.12 238.398 115.789 239.441 115.713L240.195 115.658C241.703 115.549 243.107 114.567 244.406 112.714C244.743 112.129 244.879 111.511 244.816 110.86C244.726 109.95 243.947 109.361 242.477 109.094L242.365 109.102L238.715 109.451C236.662 109.357 235.566 108.595 235.425 107.164L235.278 106.81C235.091 104.897 236.343 102.935 239.033 100.924C240.213 100.146 241.306 99.7209 242.311 99.6479ZM251.898 97.8571L260.224 96.7192C260.466 96.7016 260.721 96.9169 260.99 97.3651C261.059 98.0711 260.275 98.4836 258.636 98.6025L253.776 99.2362L253.67 99.3C254.432 102.294 255.228 108.027 256.057 116.499C256.044 117.323 255.786 117.753 255.284 117.79C254.8 117.825 254.484 117.474 254.337 116.736L253.704 110.271C253.282 105.961 252.734 102.38 252.061 99.5291C248.76 100.087 247.13 100.58 247.172 101.007L246.931 101.137C246.338 101.011 246.02 100.735 245.978 100.308C245.878 99.2859 247.851 98.4691 251.898 97.8571ZM264.225 98.0002L264.901 97.7265C265.534 97.6806 265.933 98.4936 266.096 100.166L267.592 106.54L267.715 106.643L270.812 105.24C271.24 105.209 271.505 105.517 271.606 106.164C271.653 106.647 270.528 107.318 268.231 108.177L268.125 108.241L268.135 108.353C268.174 108.743 268.987 110.733 270.576 114.322L270.582 114.377C270.616 114.73 270.357 115.049 269.803 115.332C269.263 115.371 268.847 114.756 268.554 113.486C268.035 112.589 267.363 111.094 266.54 109.002L266.428 109.01C264.038 109.689 262.861 110.205 262.895 110.558C261.838 113.553 260.966 115.076 260.277 115.126C259.886 115.154 259.628 114.92 259.505 114.424C259.461 113.978 259.869 113.069 260.729 111.697L261.08 110.689L260.382 110.74L259.862 110.89C259.157 110.773 258.778 110.445 258.725 109.906C258.941 109.236 259.318 108.881 259.858 108.842L260.584 109.07C261.626 108.994 262.11 108.575 262.036 107.814C262.767 105.515 263.497 102.244 264.225 98.0002ZM264.973 103.054L263.811 108.134C265.308 107.726 266.044 107.382 266.016 107.103C265.47 104.393 265.122 103.043 264.973 103.054ZM276.933 96.0388L285.259 94.9008C285.501 94.8832 285.757 95.0985 286.026 95.5468C286.095 96.2527 285.31 96.6652 283.672 96.7842L278.812 97.4178L278.706 97.4817C279.468 100.476 280.263 106.209 281.093 114.68C281.08 115.505 280.822 115.935 280.319 115.972C279.835 116.007 279.52 115.655 279.372 114.918L278.739 108.453C278.317 104.143 277.77 100.562 277.097 97.7108C273.795 98.2686 272.165 98.7612 272.207 99.1885L271.967 99.3182C271.373 99.1929 271.056 98.9167 271.014 98.4894C270.914 97.4676 272.887 96.6507 276.933 96.0388ZM284.874 97.6231C285.32 97.5906 285.632 97.8019 285.808 98.2568L285.801 99.9132L285.853 100.443C286.695 104.254 287.276 107.225 287.597 109.353C287.996 111.326 288.308 112.304 288.531 112.288C288.569 112.678 288.268 112.953 287.628 113.111C286.697 113.179 286.047 111.336 285.68 107.584L284.189 100.395L284.164 100.144C284.004 98.5094 284.241 97.669 284.874 97.6231ZM292.079 97.4645L292.767 97.3024L293.046 97.2821C293.418 97.255 293.851 97.4575 294.343 97.8895C295.162 97.83 296.426 98.7673 298.134 100.701C299.655 103.023 300.507 105.122 300.691 106.999C300.942 109.562 300.178 111.339 298.4 112.329L296.676 112.819C293.884 113.022 291.668 111.078 290.03 106.987C289.644 105.911 289.4 104.853 289.298 103.813L289.271 103.534C288.963 100.394 289.899 98.3713 292.079 97.4645ZM292.09 100.158L291.451 99.9518C290.941 100.681 290.75 101.696 290.877 102.996L290.951 103.749C291.287 107.186 292.696 109.6 295.176 110.991L295.974 111.102L297.035 111.025C298.003 110.954 298.642 110.3 298.952 109.061L299 107.823L298.915 106.959C298.642 104.172 297.29 101.754 294.858 99.7044L293.68 99.4531L293.624 99.4572C293.252 99.4842 292.741 99.7178 292.09 100.158ZM302.925 96.3681C303.827 96.5832 305.825 99.8527 308.919 106.176L309.387 106.648L309.235 105.087C308.829 100.944 309.567 97.9438 311.447 96.0859C311.913 96.0521 312.232 96.347 312.406 96.9705C311.213 99.1526 310.679 100.885 310.805 102.167C310.712 102.173 310.713 102.763 310.809 103.934L310.954 105.411C311.079 106.693 311.398 108.513 311.91 110.871C311.788 111.347 311.513 111.601 311.085 111.632C310.657 111.663 309.966 110.834 309.013 109.144C307.916 107.709 306.65 105.499 305.214 102.516L305.103 102.525L305.119 102.692L305.633 106.219C305.991 109.878 305.524 112.289 304.231 113.449L303.542 113.583C302.964 113.625 302.428 113.131 301.934 112.1C302.008 111.515 302.268 111.206 302.715 111.174L302.883 111.161L303.457 111.569L303.541 111.563C304.107 110.642 304.271 108.965 304.032 106.531C303.792 104.079 303.135 101.002 302.06 97.301C302.011 96.7993 302.299 96.4884 302.925 96.3681ZM202.916 124.785C205.541 124.594 208.209 125.804 210.921 128.413C211.809 129.827 212.321 131.221 212.455 132.596C212.772 135.828 211.357 138.326 208.211 140.088C207.195 140.63 206.073 140.945 204.844 141.035L204.146 141.085C203.455 141.117 203.083 140.854 203.028 140.297L202.944 140.303C202.895 139.801 203.186 139.518 203.817 139.453L204.46 139.407L204.443 139.24L204.499 139.235C202.866 134.433 201.934 130.843 201.701 128.465L201.617 128.471L200.963 128.968C200.479 129.003 200.158 128.699 200.001 128.056C199.901 127.034 200.391 126.1 201.471 125.255C201.913 124.979 202.394 124.823 202.916 124.785ZM203.412 126.405L203.188 126.421L203.319 127.758C203.617 130.805 204.569 134.59 206.175 139.114L206.258 139.108C209.612 137.929 211.137 135.797 210.836 132.713C210.512 129.406 208.368 127.336 204.405 126.501C204.171 126.406 203.84 126.373 203.412 126.405ZM221.122 123.659C221.457 123.635 221.718 123.906 221.905 124.472C221.938 124.806 221.397 125.313 220.282 125.993C218.953 127.362 218.086 129.614 217.681 132.749L217.73 133.251C219.272 132.334 220.388 131.767 221.079 131.548C221.302 131.532 221.591 131.707 221.946 132.075L221.998 132.604C222.018 132.808 221.239 133.277 219.66 134.009C218.497 134.767 217.92 135.192 217.929 135.285L217.954 135.536C218.056 136.576 218.814 137.429 220.229 138.093L221.195 138.191C221.809 138.147 222.684 137.699 223.82 136.85L224.155 136.826C224.564 136.983 224.786 137.238 224.821 137.591L224.837 137.758C223.801 139.05 222.585 139.746 221.188 139.848C219.196 139.992 217.613 138.76 216.439 136.151L214.715 136.641C213.846 136.573 213.39 136.326 213.349 135.898C213.307 135.471 213.528 135.146 214.013 134.924L214.666 134.989C215.607 134.64 216.071 134.4 216.058 134.27C215.749 131.112 216.663 128.099 218.801 125.231C219.92 124.214 220.694 123.69 221.122 123.659ZM240.569 120.731L248.895 119.593C249.137 119.575 249.393 119.791 249.662 120.239C249.731 120.945 248.946 121.357 247.308 121.476L242.448 122.11L242.342 122.174C243.104 125.168 243.899 130.901 244.729 139.373C244.716 140.197 244.458 140.627 243.955 140.664C243.471 140.699 243.155 140.348 243.008 139.61L242.375 133.145C241.953 128.835 241.406 125.254 240.733 122.403C237.431 122.961 235.801 123.453 235.843 123.881L235.603 124.01C235.009 123.885 234.692 123.609 234.65 123.182C234.55 122.16 236.523 121.343 240.569 120.731ZM251.931 121.646L252.043 121.638C254.336 121.883 255.569 122.888 255.741 124.653L255.79 125.154C255.981 127.105 254.924 129.137 252.619 131.25L252.629 131.362C257.022 134.672 259.991 136.271 261.537 136.159C261.836 136.343 262 136.584 262.029 136.881C262.071 137.309 261.781 137.601 261.159 137.758C259.614 137.871 256.546 136.222 251.956 132.814L250.692 132.26L250.609 132.266C251.334 134.309 251.752 135.897 251.863 137.03C251.91 137.513 251.646 137.879 251.07 138.126C250.214 138.188 249.469 136.138 248.836 131.974C248.051 130.085 247.603 128.565 247.49 127.413L247.465 127.162C247.3 125.472 247.589 124.599 248.334 124.545L248.892 124.785L249.059 124.773C249.764 122.776 250.721 121.734 251.931 121.646ZM250.398 129.25L250.415 130.288C252.146 130.162 253.403 128.63 254.184 125.692L254.083 124.661C254.003 123.843 253.396 123.392 252.263 123.306L252.095 123.318C250.922 123.403 250.356 125.38 250.398 129.25ZM267.405 119.82L268.081 119.547C268.714 119.501 269.113 120.314 269.276 121.986L270.772 128.36L270.895 128.463L273.992 127.06C274.42 127.029 274.685 127.337 274.786 127.984C274.833 128.467 273.708 129.138 271.411 129.997L271.305 130.061L271.316 130.173C271.354 130.563 272.167 132.553 273.756 136.142L273.762 136.197C273.796 136.55 273.537 136.869 272.983 137.152C272.443 137.191 272.027 136.576 271.734 135.306C271.215 134.409 270.543 132.914 269.72 130.822L269.608 130.83C267.218 131.509 266.041 132.025 266.075 132.378C265.018 135.373 264.146 136.896 263.457 136.946C263.066 136.974 262.809 136.74 262.685 136.244C262.641 135.798 263.049 134.889 263.909 133.517L264.26 132.509L263.562 132.56L263.042 132.71C262.337 132.593 261.958 132.265 261.905 131.726C262.121 131.056 262.498 130.701 263.038 130.662L263.764 130.89C264.806 130.814 265.29 130.395 265.216 129.634C265.947 127.335 266.677 124.064 267.405 119.82ZM268.153 124.874L266.991 129.954C268.488 129.546 269.224 129.202 269.196 128.923C268.65 126.213 268.302 124.863 268.153 124.874ZM286.015 118.384C286.369 118.359 286.63 118.63 286.798 119.198C286.83 119.532 286.296 120.01 285.194 120.633C284.251 121.338 283.505 122.917 282.958 125.37C282.407 129.32 282.278 132.782 282.569 135.754C282.279 136.056 281.995 136.217 281.716 136.237C281.25 136.271 280.722 135.374 280.131 133.546C276.587 126.656 274.779 122.84 274.706 122.096C274.67 121.725 274.945 121.471 275.532 121.335C276.016 121.3 276.575 122.223 277.209 124.104L280.564 130.792L280.676 130.784C280.787 130.776 280.864 129.835 280.906 127.961C281.326 124.974 281.826 122.898 282.405 121.734C283.75 119.578 284.954 118.461 286.015 118.384ZM291.186 118.093L291.862 117.819C292.495 117.773 292.894 118.586 293.058 120.258L294.554 126.633L294.676 126.736L297.773 125.332C298.201 125.301 298.466 125.61 298.567 126.257C298.614 126.74 297.489 127.411 295.192 128.27L295.086 128.334L295.097 128.446C295.135 128.836 295.948 130.825 297.537 134.415L297.543 134.47C297.577 134.823 297.318 135.141 296.764 135.425C296.224 135.464 295.808 134.849 295.515 133.579C294.996 132.681 294.324 131.187 293.501 129.095L293.389 129.103C290.999 129.782 289.822 130.297 289.856 130.65C288.8 133.646 287.927 135.169 287.238 135.219C286.847 135.247 286.59 135.013 286.466 134.517C286.422 134.071 286.83 133.162 287.69 131.79L288.041 130.782L287.343 130.833L286.823 130.983C286.118 130.866 285.739 130.538 285.686 129.999C285.902 129.329 286.28 128.974 286.82 128.934L287.545 129.162C288.588 129.087 289.072 128.668 288.997 127.906C289.728 125.608 290.458 122.337 291.186 118.093ZM291.934 123.146L290.772 128.226C292.27 127.818 293.005 127.475 292.977 127.196C292.431 124.486 292.083 123.136 291.934 123.146ZM299.971 118.577C300.418 118.545 300.73 118.756 300.905 119.211L300.899 120.868L300.951 121.397C301.793 125.209 302.374 128.179 302.695 130.307C303.094 132.28 303.406 133.259 303.629 133.242C303.667 133.633 303.366 133.907 302.725 134.066C301.795 134.133 301.145 132.291 300.778 128.538L299.287 121.35L299.262 121.099C299.102 119.464 299.338 118.623 299.971 118.577ZM305.025 119.417C305.472 119.385 305.829 120.06 306.095 121.444L306.354 122.941C306.465 124.074 306.55 127.043 306.608 131.847L306.775 131.835L306.783 131.919L306.887 131.827L307.11 131.811L310.402 131.824L310.626 131.808L311.981 131.289L312.177 131.274C312.493 131.439 312.723 131.684 312.867 132.01C312.936 132.716 312.188 133.21 310.622 133.492L307.746 133.42L307.215 133.459L305.91 133.919C305.39 133.769 305.109 133.49 305.069 133.082L304.72 123.481L304.679 123.063L304.238 120.288C304.193 119.824 304.455 119.533 305.025 119.417Z" fill="black"/>
</svg>
