<svg width="20" height="20" viewBox="0 0 20 20" fill="none" xmlns="http://www.w3.org/2000/svg">
<path d="M8.75 16.5834V3.41675C8.75 2.16675 8.21667 1.66675 6.89167 1.66675H3.525C2.2 1.66675 1.66667 2.16675 1.66667 3.41675V16.5834C1.66667 17.8334 2.2 18.3334 3.525 18.3334H6.89167C8.21667 18.3334 8.75 17.8334 8.75 16.5834Z" stroke="white" stroke-width="1.5" stroke-linecap="round" stroke-linejoin="round"/>
<path d="M18.3333 9.08341V3.41675C18.3333 2.16675 17.8 1.66675 16.475 1.66675H13.1083C11.7833 1.66675 11.25 2.16675 11.25 3.41675V9.08341C11.25 10.3334 11.7833 10.8334 13.1083 10.8334H16.475C17.8 10.8334 18.3333 10.3334 18.3333 9.08341Z" stroke="white" stroke-width="1.5" stroke-linecap="round" stroke-linejoin="round"/>
<path d="M18.3333 16.5833V15.0833C18.3333 13.8333 17.8 13.3333 16.475 13.3333H13.1083C11.7833 13.3333 11.25 13.8333 11.25 15.0833V16.5833C11.25 17.8333 11.7833 18.3333 13.1083 18.3333H16.475C17.8 18.3333 18.3333 17.8333 18.3333 16.5833Z" stroke="white" stroke-width="1.5" stroke-linecap="round" stroke-linejoin="round"/>
</svg>
