<svg width="20" height="21" viewBox="0 0 20 21" fill="none" xmlns="http://www.w3.org/2000/svg">
<path d="M18.0583 12.5198L17.725 16.6864C17.6 17.9614 17.5 18.9364 15.2417 18.9364H4.75833C2.5 18.9364 2.4 17.9614 2.275 16.6864L1.94167 12.5198C1.875 11.8281 2.09167 11.1864 2.48333 10.6948C2.49167 10.6864 2.49167 10.6864 2.5 10.6781C2.95833 10.1198 3.65 9.76978 4.425 9.76978H15.575C16.35 9.76978 17.0333 10.1198 17.4833 10.6614C17.4917 10.6698 17.5 10.6781 17.5 10.6864C17.9083 11.1781 18.1333 11.8198 18.0583 12.5198Z" stroke="white" stroke-width="1.5" stroke-miterlimit="10"/>
<path d="M2.91667 10.128V5.83634C2.91667 3.00301 3.625 2.29468 6.45833 2.29468H7.51667C8.575 2.29468 8.81667 2.61134 9.21667 3.14468L10.275 4.56134C10.5417 4.91134 10.7 5.12801 11.4083 5.12801H13.5333C16.3667 5.12801 17.075 5.83634 17.075 8.66968V10.1613" stroke="white" stroke-width="1.5" stroke-miterlimit="10" stroke-linecap="round" stroke-linejoin="round"/>
<path d="M7.85833 14.7698H12.1417" stroke="white" stroke-width="1.5" stroke-miterlimit="10" stroke-linecap="round" stroke-linejoin="round"/>
</svg>
