<svg width="20" height="21" viewBox="0 0 20 21" fill="none" xmlns="http://www.w3.org/2000/svg">
<path d="M18 4.86768H14V2.86768C14 1.76768 13.1 0.867676 12 0.867676H8C6.9 0.867676 6 1.76768 6 2.86768V4.86768H2C0.9 4.86768 0 5.76768 0 6.86768V18.8677C0 19.9677 0.9 20.8677 2 20.8677H18C19.1 20.8677 20 19.9677 20 18.8677V6.86768C20 5.76768 19.1 4.86768 18 4.86768ZM8 2.86768H12V4.86768H8V2.86768ZM18 18.8677H2V6.86768H18V18.8677Z" fill="white"/>
<path d="M10.9991 8.8667H8.99908V11.8667H5.99908V13.8667H8.99908V16.8667H10.9991V13.8667H13.9991V11.8667H10.9991V8.8667Z" fill="white"/>
</svg>
